<svg xmlns="http://www.w3.org/2000/svg" viewBox="0 0 1600 900" role="img" aria-labelledby="t d">
<title id="t">Burlington backyard fire rules illustration</title><desc id="d">A Burlington backyard split between a wood fire pit marked as not permitted in urban areas and a propane fire table shown as permitted.</desc>
<rect width="1600" height="900" fill="#dfeaf0"/><rect y="430" width="1600" height="470" fill="#7fa66f"/><path d="M0 440h1600" stroke="#6e8f62" stroke-width="8"/>
<g opacity=".9"><rect x="95" y="245" width="420" height="245" fill="#f3f1e8"/><path d="M55 245l250-180 250 180z" fill="#9d6047"/><rect x="245" y="360" width="110" height="130" fill="#c8d5dc"/><rect x="1020" y="260" width="410" height="230" fill="#f5f2e7"/><path d="M990 260l235-170 235 170z" fill="#755b4b"/></g>
<g transform="translate(235 535)"><ellipse cx="230" cy="185" rx="205" ry="65" fill="#566068"/><ellipse cx="230" cy="168" rx="170" ry="45" fill="#252d33"/><path d="M160 160c-42-95 33-111 48-173 52 49 43 85 31 116 54-31 88 28 47 79-22 27-54 39-89 32-45-9-65-31-37-54z" fill="#e65435"/><path d="M208 168c-20-57 22-71 30-107 31 30 24 54 15 74 30-17 50 16 28 47-15 20-54 34-73-14z" fill="#f4b33d"/><path d="M92 74l276 276M368 74L92 350" stroke="#b6292e" stroke-width="32" stroke-linecap="round"/></g>
<g transform="translate(970 555)"><rect x="40" y="100" width="390" height="170" rx="20" fill="#33434c"/><rect x="88" y="55" width="294" height="85" rx="18" fill="#222b31"/><path d="M195 99c-31-64 27-78 37-126 39 37 33 64 24 86 39-21 63 20 33 55-19 22-61 32-94-15z" fill="#4c9fe0"/><path d="M230 104c-18-39 14-50 22-78 24 22 20 39 14 53 22-12 37 10 20 31-13 15-39 22-56-6z" fill="#d9efff"/><circle cx="430" cy="183" r="72" fill="#2d8b63"/><path d="M399 184l20 20 43-51" fill="none" stroke="#fff" stroke-width="18" stroke-linecap="round" stroke-linejoin="round"/></g>
<g><rect x="730" y="95" width="140" height="710" rx="70" fill="#fff" opacity=".68"/><circle cx="800" cy="235" r="54" fill="#0d263b"/><path d="M800 202v66M767 235h66" stroke="#fff" stroke-width="15" stroke-linecap="round"/></g>
</svg>